<?xml version="1.0" encoding="utf-8"?><svg xmlns="http://www.w3.org/2000/svg" xmlns:xlink="http://www.w3.org/1999/xlink" width="1273" height="573" preserveAspectRatio="xMidYMid" viewBox="0 0 1273 573" style="z-index:1;margin-right:-2px;display:block;background-repeat-y:initial;background-repeat-x:initial;background-color:rgb(241, 242, 243);animation-play-state:paused" ><g transform="translate(636.5,286.5) scale(1,1) translate(-636.5,-286.5)" style="transform:matrix(1, 0, 0, 1, 0, 0);animation-play-state:paused" ><g transform="translate(988.5535657639889,13.41926224491641) scale(100)" opacity="0.4" style="transform:matrix(100, 0, 0, 100, 988.554, 13.4193);opacity:0.4;animation-play-state:paused" ><path d="M4.321835 0 C4.321835 1.024765 4.486715972158414 1.407109977090839 3.9743334721584134 2.2945824999999993 S3.0483900229091607 3.2304364009647193 2.1609175000000005 3.7428189009647195 S1.0247650000000001 4.5891649999999995 2.8100531140045314e-16 4.5891649999999995 S-1.273444977090839 4.25520140096472 -2.160917499999999 3.74281890096472 S-3.461950972158412 3.182055022909161 -3.974333472158412 2.294582500000001 S-4.321835 1.0247650000000004 -4.321835 5.2927213991930015e-16 S-4.486715972158414 -1.4071099770908382 -3.974333472158414 -2.2945824999999984 S-3.048390022909162 -3.2304364009647184 -2.160917500000002 -3.7428189009647186 S-1.0247650000000008 -4.5891649999999995 -8.430159342013594e-16 -4.5891649999999995 S1.2734449770908367 -4.2552014009647205 2.1609174999999974 -3.7428189009647213 S3.4619509721584114 -3.1820550229091618 3.9743334721584116 -2.294582500000002 S4.321835 -1.024765000000001 4.321835 -1.0585442798386003e-15" fill="#8716e7" stroke-width="0" transform="matrix(1,0,0,1,0,0)" style="transform:matrix(1, 0, 0, 1, 0, 0);animation-play-state:paused" ></path></g>
<g transform="translate(1058.9642789167865,-41.19688530610034) scale(100)" opacity="0.4" style="transform:matrix(100, 0, 0, 100, 1058.96, -41.1969);opacity:0.4;animation-play-state:paused" ><path d="M5.186202 0 C5.186202 1.2297179999999999 5.384059166590096 1.6885319725090069 4.769200166590096 2.7534989999999993 S3.6580680274909927 3.8765236811576624 2.5931010000000003 4.4913826811576625 S1.2297180000000003 5.506997999999999 3.372063736805438e-16 5.506997999999999 S-1.5281339725090062 5.106241681157663 -2.5931009999999985 4.491382681157663 S-4.154341166590094 3.8184660274909934 -4.769200166590094 2.7534990000000015 S-5.186202 1.2297180000000005 -5.186202 6.351265679031601e-16 S-5.384059166590095 -1.688531972509006 -4.769200166590096 -2.7534989999999984 S-3.658068027490994 -3.876523681157662 -2.593101000000002 -4.4913826811576625 S-1.229718000000001 -5.506997999999999 -1.0116191210416313e-15 -5.506997999999999 S1.5281339725090037 -5.106241681157664 2.5931009999999963 -4.491382681157665 S4.154341166590093 -3.8184660274909943 4.769200166590094 -2.7534990000000024 S5.186202 -1.2297180000000012 5.186202 -1.2702531358063203e-15" fill="#3a1d8d" stroke-width="0" transform="matrix(1,0,0,1,0,0)" style="transform:matrix(1, 0, 0, 1, 0, 0);animation-play-state:paused" ></path></g>
<g transform="translate(1227.949990483501,-172.27563942854044) scale(100)" opacity="0.4" style="transform:matrix(100, 0, 0, 100, 1227.95, -172.276);opacity:0.4;animation-play-state:paused" ><path d="M7.260682799999999 0 C7.260682799999999 1.7216051999999997 7.5376828332261345 2.3639447615126103 6.676880233226135 3.8548985999999994 S5.121295238487389 5.427133153620726 3.6303414000000003 6.287935753620727 S1.7216052000000002 7.7097972 4.720889231527612e-16 7.7097972 S-2.1393875615126086 7.148738353620727 -3.6303413999999976 6.287935753620728 S-5.816077633226133 5.345852438487391 -6.676880233226133 3.8548986000000025 S-7.260682799999999 1.7216052000000006 -7.260682799999999 8.89177195064424e-16 S-7.537682833226135 -2.3639447615126086 -6.676880233226136 -3.8548985999999976 S-5.1212952384873915 -5.427133153620726 -3.6303414000000025 -6.287935753620727 S-1.721605200000001 -7.7097972 -1.4162667694582837e-15 -7.7097972 S2.1393875615126046 -7.148738353620729 3.6303413999999945 -6.28793575362073 S5.816077633226132 -5.345852438487392 6.676880233226132 -3.8548986000000034 S7.260682799999999 -1.7216052000000015 7.260682799999999 -1.778354390128848e-15" fill="#0d0634" stroke-width="0" transform="matrix(1,0,0,1,0,0)" style="transform:matrix(1, 0, 0, 1, 0, 0);animation-play-state:paused" ></path></g></g></svg>