<?xml version="1.0" encoding="utf-8"?><svg xmlns="http://www.w3.org/2000/svg" xmlns:xlink="http://www.w3.org/1999/xlink" width="903" height="569" preserveAspectRatio="xMidYMid" viewBox="0 0 903 569" style="z-index:1;margin-right:-2px;display:block;background-repeat-y:initial;background-repeat-x:initial;background-color:rgb(241, 242, 243);animation-play-state:paused" ><g transform="translate(451.5,284.5) scale(1,1) translate(-451.5,-284.5)" style="transform:matrix(1, 0, 0, 1, 0, 0);animation-play-state:paused" ><defs style="animation-play-state:paused" ><linearGradient id="ldbk-photon-dkdk8jxbskv-lg" x1="426.5" x2="903" y1="0" y2="0" gradientUnits="userSpaceOnUse" style="animation-play-state:paused" ><stop stop-color="#420457" offset="0" style="animation-play-state:paused" ></stop>

    
<stop stop-color="#5a3faa" offset="1" style="animation-play-state:paused" ></stop></linearGradient>

  
<mask id="ldbk-photon-dkdk8jxbskv-mask" style="animation-play-state:paused" ><g style="animation-play-state:paused" ><path d="M1203 -0.5 L426.4232398762214 -0.5 A15 15 0 0 1 426.4232398762214 30.5 L1203 30.5" fill="#fff" transform="matrix(1,0,0,1,47.731353759765625,0)" style="transform:matrix(1, 0, 0, 1, 47.7314, 0);animation-play-state:paused" ></path>
<path d="M950.2514489584267 -0.5 L967.5028979168535 -0.5 A15 15 0 0 1 967.5028979168535 30.5 L950.2514489584267 30.5 A15 15 0 0 1 950.2514489584267 -0.5" fill="#000" transform="matrix(1,0,0,1,0,0)" opacity="1" style="transform:matrix(1, 0, 0, 1, 0, 0);animation-play-state:paused" ></path>
<path d="M1203 29.5 L395.10421295168925 29.5 A15 15 0 0 0 395.10421295168925 60.5 L1203 60.5" fill="#fff" transform="matrix(1,0,0,1,-0.18011474609375,0)" style="transform:matrix(1, 0, 0, 1, -0.180115, 0);animation-play-state:paused" ></path>
<path d="M499.6467462041521 29.5 L513.0494831050826 29.5 A15 15 0 0 1 513.0494831050826 60.5 L499.6467462041521 60.5 A15 15 0 0 1 499.6467462041521 29.5" fill="#fff" transform="matrix(1,0,0,1,0,0)" opacity="0.977444" style="transform:matrix(1, 0, 0, 1, 0, 0);opacity:0.977444;animation-play-state:paused" ></path>
<path d="M1203 59.5 L422.69966580733325 59.5 A15 15 0 0 1 422.69966580733325 90.5 L1203 90.5" fill="#fff" transform="matrix(1,0,0,1,30.593530654907227,0)" style="transform:matrix(1, 0, 0, 1, 30.5935, 0);animation-play-state:paused" ></path>
<path d="M970.7698285039213 59.5 L1008.5396570078426 59.5 A15 15 0 0 1 1008.5396570078426 90.5 L970.7698285039213 90.5 A15 15 0 0 1 970.7698285039213 59.5" fill="#000" transform="matrix(1,0,0,1,-247.37722778320312,0)" opacity="0.977444" style="transform:matrix(1, 0, 0, 1, -247.377, 0);opacity:0.977444;animation-play-state:paused" ></path>
<path d="M1203 89.5 L392.40964261461295 89.5 A15 15 0 0 0 392.40964261461295 120.5 L1203 120.5" fill="#fff" transform="matrix(1,0,0,1,-1.1907711029052734,0)" style="transform:matrix(1, 0, 0, 1, -1.19077, 0);animation-play-state:paused" ></path>
<path d="M474.7050086516217 89.5 L509.14135220640674 89.5 A15 15 0 0 1 509.14135220640674 120.5 L474.7050086516217 120.5 A15 15 0 0 1 474.7050086516217 89.5" fill="#fff" transform="matrix(1,0,0,1,0,0)" opacity="0.827067" style="transform:matrix(1, 0, 0, 1, 0, 0);opacity:0.827067;animation-play-state:paused" ></path>
<path d="M1203 119.5 L408.0181212991986 119.5 A15 15 0 0 1 408.0181212991986 150.5 L1203 150.5" fill="#fff" transform="matrix(1,0,0,1,17.751127243041992,0)" style="transform:matrix(1, 0, 0, 1, 17.7511, 0);animation-play-state:paused" ></path>
<path d="M946.4248698631168 119.5 L959.8497397262336 119.5 A15 15 0 0 1 959.8497397262336 150.5 L946.4248698631168 150.5 A15 15 0 0 1 946.4248698631168 119.5" fill="#000" transform="matrix(1,0,0,1,-237.47445678710938,0)" opacity="1" style="transform:matrix(1, 0, 0, 1, -237.474, 0);animation-play-state:paused" ></path>
<path d="M1203 149.5 L375.05866361514836 149.5 A15 15 0 0 0 375.05866361514836 180.5 L1203 180.5" fill="#fff" transform="matrix(1,0,0,1,-24.801292419433594,0)" style="transform:matrix(1, 0, 0, 1, -24.8013, 0);animation-play-state:paused" ></path>
<path d="M454.1399201086918 149.5 L490.84265043837513 149.5 A15 15 0 0 1 490.84265043837513 180.5 L454.1399201086918 180.5 A15 15 0 0 1 454.1399201086918 149.5" fill="#fff" transform="matrix(1,0,0,1,0,0)" opacity="0.601504" style="transform:matrix(1, 0, 0, 1, 0, 0);opacity:0.601504;animation-play-state:paused" ></path>
<path d="M1203 179.5 L428.26781501465587 179.5 A15 15 0 0 1 428.26781501465587 210.5 L1203 210.5" fill="#fff" transform="matrix(1,0,0,1,25.321395874023438,0)" style="transform:matrix(1, 0, 0, 1, 25.3214, 0);animation-play-state:paused" ></path>
<path d="M951.498821322371 179.5 L969.997642644742 179.5 A15 15 0 0 1 969.997642644742 210.5 L951.498821322371 210.5 A15 15 0 0 1 951.498821322371 179.5" fill="#000" transform="matrix(1,0,0,1,-573.3561401367188,0)" opacity="0.225564" style="transform:matrix(1, 0, 0, 1, -573.356, 0);opacity:0.225564;animation-play-state:paused" ></path>
<path d="M1203 209.5 L372.26501486751624 209.5 A15 15 0 0 0 372.26501486751624 240.5 L1203 240.5" fill="#fff" transform="matrix(1,0,0,1,-29.04289436340332,0)" style="transform:matrix(1, 0, 0, 1, -29.0429, 0);animation-play-state:paused" ></path>
<path d="M504.1021647123791 209.5 L517.0592925027966 209.5 A15 15 0 0 1 517.0592925027966 240.5 L504.1021647123791 240.5 A15 15 0 0 1 504.1021647123791 209.5" fill="#fff" transform="matrix(1,0,0,1,0,0)" opacity="1" style="transform:matrix(1, 0, 0, 1, 0, 0);animation-play-state:paused" ></path>
<path d="M1203 239.5 L419.8837995940168 239.5 A15 15 0 0 1 419.8837995940168 270.5 L1203 270.5" fill="#fff" transform="matrix(1,0,0,1,16.314289093017578,0)" style="transform:matrix(1, 0, 0, 1, 16.3143, 0);animation-play-state:paused" ></path>
<path d="M965.3159891239333 239.5 L997.6319782478665 239.5 A15 15 0 0 1 997.6319782478665 270.5 L965.3159891239333 270.5 A15 15 0 0 1 965.3159891239333 239.5" fill="#000" transform="matrix(1,0,0,1,-211.82797241210938,0)" opacity="1" style="transform:matrix(1, 0, 0, 1, -211.828, 0);animation-play-state:paused" ></path>
<path d="M1203 269.5 L410.6484401970696 269.5 A15 15 0 0 0 410.6484401970696 300.5 L1203 300.5" fill="#fff" transform="matrix(1,0,0,1,-32.80442810058594,0)" style="transform:matrix(1, 0, 0, 1, -32.8044, 0);animation-play-state:paused" ></path>
<path d="M479.42594025513597 269.5 L500.49767930941096 269.5 A15 15 0 0 1 500.49767930941096 300.5 L479.42594025513597 300.5 A15 15 0 0 1 479.42594025513597 269.5" fill="#fff" transform="matrix(1,0,0,1,0,0)" opacity="1" style="transform:matrix(1, 0, 0, 1, 0, 0);animation-play-state:paused" ></path>
<path d="M1203 299.5 L453.50157621895926 299.5 A15 15 0 0 1 453.50157621895926 330.5 L1203 330.5" fill="#fff" transform="matrix(1,0,0,1,14.66674518585205,0)" style="transform:matrix(1, 0, 0, 1, 14.6667, 0);animation-play-state:paused" ></path>
<path d="M945.3596325391676 299.5 L957.7192650783352 299.5 A15 15 0 0 1 957.7192650783352 330.5 L945.3596325391676 330.5 A15 15 0 0 1 945.3596325391676 299.5" fill="#000" transform="matrix(1,0,0,1,-147.62034606933594,0)" opacity="1" style="transform:matrix(1, 0, 0, 1, -147.62, 0);animation-play-state:paused" ></path>
<path d="M1203 329.5 L408.4751555970643 329.5 A15 15 0 0 0 408.4751555970643 360.5 L1203 360.5" fill="#fff" transform="matrix(1,0,0,1,-18.449167251586914,0)" style="transform:matrix(1, 0, 0, 1, -18.4492, 0);animation-play-state:paused" ></path>
<path d="M529.0482042558746 329.5 L553.7593529484359 329.5 A15 15 0 0 1 553.7593529484359 360.5 L529.0482042558746 360.5 A15 15 0 0 1 529.0482042558746 329.5" fill="#fff" transform="matrix(1,0,0,1,0,0)" opacity="0.37594" style="transform:matrix(1, 0, 0, 1, 0, 0);opacity:0.37594;animation-play-state:paused" ></path>
<path d="M1203 359.5 L452.67228109799 359.5 A15 15 0 0 1 452.67228109799 390.5 L1203 390.5" fill="#fff" transform="matrix(1,0,0,1,23.28028106689453,0)" style="transform:matrix(1, 0, 0, 1, 23.2803, 0);animation-play-state:paused" ></path>
<path d="M944.1095619025523 359.5 L955.2191238051046 359.5 A15 15 0 0 1 955.2191238051046 390.5 L944.1095619025523 390.5 A15 15 0 0 1 944.1095619025523 359.5" fill="#000" transform="matrix(1,0,0,1,-671.5338134765625,0)" opacity="0.300752" style="transform:matrix(1, 0, 0, 1, -671.534, 0);opacity:0.300752;animation-play-state:paused" ></path>
<path d="M1203 389.5 L430.8516145991205 389.5 A15 15 0 0 0 430.8516145991205 420.5 L1203 420.5" fill="#fff" transform="matrix(1,0,0,1,-28.037616729736328,0)" style="transform:matrix(1, 0, 0, 1, -28.0376, 0);animation-play-state:paused" ></path>
<path d="M513.371901709341 389.5 L525.1250376580434 389.5 A15 15 0 0 1 525.1250376580434 420.5 L513.371901709341 420.5 A15 15 0 0 1 513.371901709341 389.5" fill="#fff" transform="matrix(1,0,0,1,0,0)" opacity="1" style="transform:matrix(1, 0, 0, 1, 0, 0);animation-play-state:paused" ></path>
<path d="M1203 419.5 L459.27427474201266 419.5 A15 15 0 0 1 459.27427474201266 450.5 L1203 450.5" fill="#fff" transform="matrix(1,0,0,1,1.7447891235351562,0)" style="transform:matrix(1, 0, 0, 1, 1.74479, 0);animation-play-state:paused" ></path>
<path d="M952.8737993714469 419.5 L972.7475987428938 419.5 A15 15 0 0 1 972.7475987428938 450.5 L952.8737993714469 450.5 A15 15 0 0 1 952.8737993714469 419.5" fill="#000" transform="matrix(1,0,0,1,-643.4661865234375,0)" opacity="0.526315" style="transform:matrix(1, 0, 0, 1, -643.466, 0);opacity:0.526315;animation-play-state:paused" ></path>
<path d="M1203 449.5 L438.61601135628376 449.5 A15 15 0 0 0 438.61601135628376 480.5 L1203 480.5" fill="#fff" transform="matrix(1,0,0,1,-45.223201751708984,0)" style="transform:matrix(1, 0, 0, 1, -45.2232, 0);animation-play-state:paused" ></path>
<path d="M545.0202727977692 449.5 L561.1297579774587 449.5 A15 15 0 0 1 561.1297579774587 480.5 L545.0202727977692 480.5 A15 15 0 0 1 545.0202727977692 449.5" fill="#fff" transform="matrix(1,0,0,1,0,0)" opacity="0.37594" style="transform:matrix(1, 0, 0, 1, 0, 0);opacity:0.37594;animation-play-state:paused" ></path>
<path d="M1203 479.5 L474.8145621594468 479.5 A15 15 0 0 1 474.8145621594468 510.5 L1203 510.5" fill="#fff" transform="matrix(1,0,0,1,0.1415369063615799,0)" style="transform:matrix(1, 0, 0, 1, 0.141537, 0);animation-play-state:paused" ></path>
<path d="M948.2860436972361 479.5 L963.5720873944722 479.5 A15 15 0 0 1 963.5720873944722 510.5 L948.2860436972361 510.5 A15 15 0 0 1 948.2860436972361 479.5" fill="#000" transform="matrix(1,0,0,1,-51.95546340942383,0)" opacity="1" style="transform:matrix(1, 0, 0, 1, -51.9555, 0);animation-play-state:paused" ></path>
<path d="M1203 509.5 L421.36768297657215 509.5 A15 15 0 0 0 421.36768297657215 540.5 L1203 540.5" fill="#fff" transform="matrix(1,0,0,1,-48.153648376464844,0)" style="transform:matrix(1, 0, 0, 1, -48.1536, 0);animation-play-state:paused" ></path>
<path d="M531.2254230938843 509.5 L543.4144314960025 509.5 A15 15 0 0 1 543.4144314960025 540.5 L531.2254230938843 540.5 A15 15 0 0 1 531.2254230938843 509.5" fill="#fff" transform="matrix(1,0,0,1,0,0)" opacity="0.451128" style="transform:matrix(1, 0, 0, 1, 0, 0);opacity:0.451128;animation-play-state:paused" ></path>
<path d="M1203 539.5 L438.86955163088254 539.5 A15 15 0 0 1 438.86955163088254 570.5 L1203 570.5" fill="#fff" transform="matrix(1,0,0,1,11.202526092529297,0)" style="transform:matrix(1, 0, 0, 1, 11.2025, 0);animation-play-state:paused" ></path>
<path d="M958.7012419547838 539.5 L984.4024839095675 539.5 A15 15 0 0 1 984.4024839095675 570.5 L958.7012419547838 570.5 A15 15 0 0 1 958.7012419547838 539.5" fill="#000" transform="matrix(1,0,0,1,-885.13525390625,0)" opacity="0.225564" style="transform:matrix(1, 0, 0, 1, -885.135, 0);opacity:0.225564;animation-play-state:paused" ></path></g></mask></defs>


<rect x="0" y="0" width="903" height="569" fill="url(#ldbk-photon-dkdk8jxbskv-lg)" mask="url(#ldbk-photon-dkdk8jxbskv-mask)" style="animation-play-state:paused" ></rect></g></svg>