<?xml version="1.0" encoding="utf-8"?><svg xmlns="http://www.w3.org/2000/svg" xmlns:xlink="http://www.w3.org/1999/xlink" width="1280" height="573" preserveAspectRatio="xMidYMid" viewBox="0 0 1280 573" style="z-index:1;margin-right:-2px;display:block;background-repeat-y:initial;background-repeat-x:initial;background-color:rgb(241, 242, 243);animation-play-state:running" ><g transform="translate(640,286.5) scale(1,1) translate(-640,-286.5)" style="transform:matrix(1, 0, 0, 1, 0, 0);animation-play-state:running" ><defs style="animation-play-state:running" ><linearGradient id="ldbk-photon-5r03y5gq30g-lg" x1="615" x2="1280" y1="0" y2="0" gradientUnits="userSpaceOnUse" style="animation-play-state:running" ><stop stop-color="#420457" offset="0" style="animation-play-state:running" ></stop>

    
<stop stop-color="#5a3faa" offset="1" style="animation-play-state:running" ></stop></linearGradient>

  
<mask id="ldbk-photon-5r03y5gq30g-mask" style="animation-play-state:running" ><g style="animation-play-state:running" ><path d="M1580 -0.5 L632.2751336186996 -0.5 A15.5 15.5 0 0 1 632.2751336186996 31.5 L1580 31.5" fill="#fff" transform="matrix(1,0,0,1,32.26576614379883,0)" style="transform:matrix(1, 0, 0, 1, 32.2658, 0);animation-play-state:running" ></path>
<path d="M1341.8144704016254 -0.5 L1372.6289408032508 -0.5 A15.5 15.5 0 0 1 1372.6289408032508 31.5 L1341.8144704016254 31.5 A15.5 15.5 0 0 1 1341.8144704016254 -0.5" fill="#000" transform="matrix(1,0,0,1,0,0)" opacity="1" style="transform:matrix(1, 0, 0, 1, 0, 0);animation-play-state:running" ></path>
<path d="M1580 30.5 L574.194403344132 30.5 A15.5 15.5 0 0 0 574.194403344132 62.5 L1580 62.5" fill="#fff" transform="matrix(1,0,0,1,-38.23925018310547,0)" style="transform:matrix(1, 0, 0, 1, -38.2393, 0);animation-play-state:running" ></path>
<path d="M698.701692920807 30.5 L727.7574866013066 30.5 A15.5 15.5 0 0 1 727.7574866013066 62.5 L698.701692920807 62.5 A15.5 15.5 0 0 1 698.701692920807 30.5" fill="#fff" transform="matrix(1,0,0,1,0,0)" opacity="0.75188" style="transform:matrix(1, 0, 0, 1, 0, 0);opacity:0.75188;animation-play-state:running" ></path>
<path d="M1580 61.5 L625.5582554300125 61.5 A15.5 15.5 0 0 1 625.5582554300125 93.5 L1580 93.5" fill="#fff" transform="matrix(1,0,0,1,8.238348007202148,0)" style="transform:matrix(1, 0, 0, 1, 8.23835, 0);animation-play-state:running" ></path>
<path d="M1339.9231951691647 61.5 L1368.8463903383295 61.5 A15.5 15.5 0 0 1 1368.8463903383295 93.5 L1339.9231951691647 93.5 A15.5 15.5 0 0 1 1339.9231951691647 61.5" fill="#000" transform="matrix(1,0,0,1,-667.9636840820312,0)" opacity="0.526316" style="transform:matrix(1, 0, 0, 1, -667.964, 0);opacity:0.526316;animation-play-state:running" ></path>
<path d="M1580 92.5 L577.7922378986931 92.5 A15.5 15.5 0 0 0 577.7922378986931 124.5 L1580 124.5" fill="#fff" transform="matrix(1,0,0,1,-1.1675357818603516,0)" style="transform:matrix(1, 0, 0, 1, -1.16754, 0);animation-play-state:running" ></path>
<path d="M639.8997974663456 92.5 L661.9845904145144 92.5 A15.5 15.5 0 0 1 661.9845904145144 124.5 L639.8997974663456 124.5 A15.5 15.5 0 0 1 639.8997974663456 92.5" fill="#fff" transform="matrix(1,0,0,1,0,0)" opacity="0.75188" style="transform:matrix(1, 0, 0, 1, 0, 0);opacity:0.75188;animation-play-state:running" ></path>
<path d="M1580 123.5 L607.9275445668707 123.5 A15.5 15.5 0 0 1 607.9275445668707 155.5 L1580 155.5" fill="#fff" transform="matrix(1,0,0,1,37.65298843383789,0)" style="transform:matrix(1, 0, 0, 1, 37.653, 0);animation-play-state:running" ></path>
<path d="M1328.3623614188318 123.5 L1345.7247228376636 123.5 A15.5 15.5 0 0 1 1345.7247228376636 155.5 L1328.3623614188318 155.5 A15.5 15.5 0 0 1 1328.3623614188318 123.5" fill="#000" transform="matrix(1,0,0,1,-274.1684265136719,0)" opacity="1" style="transform:matrix(1, 0, 0, 1, -274.168, 0);animation-play-state:running" ></path>
<path d="M1580 154.5 L565.8033157656613 154.5 A15.5 15.5 0 0 0 565.8033157656613 186.5 L1580 186.5" fill="#fff" transform="matrix(1,0,0,1,-4.073139190673828,0)" style="transform:matrix(1, 0, 0, 1, -4.07314, 0);animation-play-state:running" ></path>
<path d="M647.8058561522627 154.5 L671.2221616345942 154.5 A15.5 15.5 0 0 1 671.2221616345942 186.5 L647.8058561522627 186.5 A15.5 15.5 0 0 1 647.8058561522627 154.5" fill="#fff" transform="matrix(1,0,0,1,0,0)" opacity="0.902256" style="transform:matrix(1, 0, 0, 1, 0, 0);opacity:0.902256;animation-play-state:running" ></path>
<path d="M1580 185.5 L623.515099628366 185.5 A15.5 15.5 0 0 1 623.515099628366 217.5 L1580 217.5" fill="#fff" transform="matrix(1,0,0,1,38.33308792114258,0)" style="transform:matrix(1, 0, 0, 1, 38.3331, 0);animation-play-state:running" ></path>
<path d="M1349.6886260876497 185.5 L1388.3772521752994 185.5 A15.5 15.5 0 0 1 1388.3772521752994 217.5 L1349.6886260876497 217.5 A15.5 15.5 0 0 1 1349.6886260876497 185.5" fill="#000" transform="matrix(1,0,0,1,-952.409912109375,0)" opacity="0.150376" style="transform:matrix(1, 0, 0, 1, -952.41, 0);opacity:0.150376;animation-play-state:running" ></path>
<path d="M1580 216.5 L568.1644854960746 216.5 A15.5 15.5 0 0 0 568.1644854960746 248.5 L1580 248.5" fill="#fff" transform="matrix(1,0,0,1,-26.253765106201172,0)" style="transform:matrix(1, 0, 0, 1, -26.2538, 0);animation-play-state:running" ></path>
<path d="M660.6234399072412 216.5 L696.671712310365 216.5 A15.5 15.5 0 0 1 696.671712310365 248.5 L660.6234399072412 248.5 A15.5 15.5 0 0 1 660.6234399072412 216.5" fill="#fff" transform="matrix(1,0,0,1,0,0)" opacity="1" style="transform:matrix(1, 0, 0, 1, 0, 0);animation-play-state:running" ></path>
<path d="M1580 247.5 L616.3265760746635 247.5 A15.5 15.5 0 0 1 616.3265760746635 279.5 L1580 279.5" fill="#fff" transform="matrix(1,0,0,1,19.729434967041016,0)" style="transform:matrix(1, 0, 0, 1, 19.7294, 0);animation-play-state:running" ></path>
<path d="M1335.3578544701259 247.5 L1359.7157089402517 247.5 A15.5 15.5 0 0 1 1359.7157089402517 279.5 L1335.3578544701259 279.5 A15.5 15.5 0 0 1 1335.3578544701259 247.5" fill="#000" transform="matrix(1,0,0,1,-545.7520141601562,0)" opacity="0.676692" style="transform:matrix(1, 0, 0, 1, -545.752, 0);opacity:0.676692;animation-play-state:running" ></path>
<path d="M1580 278.5 L557.924024950126 278.5 A15.5 15.5 0 0 0 557.924024950126 310.5 L1580 310.5" fill="#fff" transform="matrix(1,0,0,1,-13.520843505859375,0)" style="transform:matrix(1, 0, 0, 1, -13.5208, 0);animation-play-state:running" ></path>
<path d="M698.2639765009031 278.5 L708.9946166307284 278.5 A15.5 15.5 0 0 1 708.9946166307284 310.5 L698.2639765009031 310.5 A15.5 15.5 0 0 1 698.2639765009031 278.5" fill="#fff" transform="matrix(1,0,0,1,0,0)" opacity="1" style="transform:matrix(1, 0, 0, 1, 0, 0);animation-play-state:running" ></path>
<path d="M1580 309.5 L654.7230966293225 309.5 A15.5 15.5 0 0 1 654.7230966293225 341.5 L1580 341.5" fill="#fff" transform="matrix(1,0,0,1,38.578407287597656,0)" style="transform:matrix(1, 0, 0, 1, 38.5784, 0);animation-play-state:running" ></path>
<path d="M1325.2773051100364 309.5 L1339.5546102200728 309.5 A15.5 15.5 0 0 1 1339.5546102200728 341.5 L1325.2773051100364 341.5 A15.5 15.5 0 0 1 1325.2773051100364 309.5" fill="#000" transform="matrix(1,0,0,1,-1062.5968017578125,0)" opacity="0.375939" style="transform:matrix(1, 0, 0, 1, -1062.6, 0);opacity:0.375939;animation-play-state:running" ></path>
<path d="M1580 340.5 L635.7519212537536 340.5 A15.5 15.5 0 0 0 635.7519212537536 372.5 L1580 372.5" fill="#fff" transform="matrix(1,0,0,1,-22.386999130249023,0)" style="transform:matrix(1, 0, 0, 1, -22.387, 0);animation-play-state:running" ></path>
<path d="M693.093930506245 340.5 L721.923726085541 340.5 A15.5 15.5 0 0 1 721.923726085541 372.5 L693.093930506245 372.5 A15.5 15.5 0 0 1 693.093930506245 340.5" fill="#fff" transform="matrix(1,0,0,1,0,0)" opacity="1" style="transform:matrix(1, 0, 0, 1, 0, 0);animation-play-state:running" ></path>
<path d="M1580 371.5 L667.8886130812871 371.5 A15.5 15.5 0 0 1 667.8886130812871 403.5 L1580 403.5" fill="#fff" transform="matrix(1,0,0,1,9.285394668579102,0)" style="transform:matrix(1, 0, 0, 1, 9.28539, 0);animation-play-state:running" ></path>
<path d="M1331.8010279160349 371.5 L1352.6020558320697 371.5 A15.5 15.5 0 0 1 1352.6020558320697 403.5 L1331.8010279160349 403.5 A15.5 15.5 0 0 1 1331.8010279160349 371.5" fill="#000" transform="matrix(1,0,0,1,-1034.7484130859375,0)" opacity="0.451127" style="transform:matrix(1, 0, 0, 1, -1034.75, 0);opacity:0.451127;animation-play-state:running" ></path>
<path d="M1580 402.5 L606.8928856963711 402.5 A15.5 15.5 0 0 0 606.8928856963711 434.5 L1580 434.5" fill="#fff" transform="matrix(1,0,0,1,-43.819793701171875,0)" style="transform:matrix(1, 0, 0, 1, -43.8198, 0);animation-play-state:running" ></path>
<path d="M712.4454586572202 402.5 L726.8701603064726 402.5 A15.5 15.5 0 0 1 726.8701603064726 434.5 L712.4454586572202 434.5 A15.5 15.5 0 0 1 712.4454586572202 402.5" fill="#fff" transform="matrix(1,0,0,1,0,0)" opacity="1" style="transform:matrix(1, 0, 0, 1, 0, 0);animation-play-state:running" ></path>
<path d="M1580 433.5 L660.6443192849204 433.5 A15.5 15.5 0 0 1 660.6443192849204 465.5 L1580 465.5" fill="#fff" transform="matrix(1,0,0,1,1.6070327758789062,0)" style="transform:matrix(1, 0, 0, 1, 1.60703, 0);animation-play-state:running" ></path>
<path d="M1350.3957651975695 433.5 L1389.791530395139 433.5 A15.5 15.5 0 0 1 1389.791530395139 465.5 L1350.3957651975695 465.5 A15.5 15.5 0 0 1 1350.3957651975695 433.5" fill="#000" transform="matrix(1,0,0,1,-850.8251342773438,0)" opacity="0.526315" style="transform:matrix(1, 0, 0, 1, -850.825, 0);opacity:0.526315;animation-play-state:running" ></path>
<path d="M1580 464.5 L637.6022246076387 464.5 A15.5 15.5 0 0 0 637.6022246076387 496.5 L1580 496.5" fill="#fff" transform="matrix(1,0,0,1,-4.218561172485352,0)" style="transform:matrix(1, 0, 0, 1, -4.21856, 0);animation-play-state:running" ></path>
<path d="M715.7224518271722 464.5 L754.9433924805581 464.5 A15.5 15.5 0 0 1 754.9433924805581 496.5 L715.7224518271722 496.5 A15.5 15.5 0 0 1 715.7224518271722 464.5" fill="#fff" transform="matrix(1,0,0,1,0,0)" opacity="1" style="transform:matrix(1, 0, 0, 1, 0, 0);animation-play-state:running" ></path>
<path d="M1580 495.5 L652.0070192076518 495.5 A15.5 15.5 0 0 1 652.0070192076518 527.5 L1580 527.5" fill="#fff" transform="matrix(1,0,0,1,48.45026397705078,0)" style="transform:matrix(1, 0, 0, 1, 48.4503, 0);animation-play-state:running" ></path>
<path d="M1342.5686156591241 495.5 L1374.1372313182483 495.5 A15.5 15.5 0 0 1 1374.1372313182483 527.5 L1342.5686156591241 527.5 A15.5 15.5 0 0 1 1342.5686156591241 495.5" fill="#000" transform="matrix(1,0,0,1,-754.3828735351562,0)" opacity="0.676692" style="transform:matrix(1, 0, 0, 1, -754.383, 0);opacity:0.676692;animation-play-state:running" ></path>
<path d="M1580 526.5 L610.1168197213922 526.5 A15.5 15.5 0 0 0 610.1168197213922 558.5 L1580 558.5" fill="#fff" transform="matrix(1,0,0,1,-42.822959899902344,0)" style="transform:matrix(1, 0, 0, 1, -42.823, 0);animation-play-state:running" ></path>
<path d="M695.3986274439105 526.5 L730.3741424622783 526.5 A15.5 15.5 0 0 1 730.3741424622783 558.5 L695.3986274439105 558.5 A15.5 15.5 0 0 1 695.3986274439105 526.5" fill="#fff" transform="matrix(1,0,0,1,0,0)" opacity="0.902256" style="transform:matrix(1, 0, 0, 1, 0, 0);opacity:0.902256;animation-play-state:running" ></path>
<path d="M1580 557.5 L637.5485888567657 557.5 A15.5 15.5 0 0 1 637.5485888567657 589.5 L1580 589.5" fill="#fff" transform="matrix(1,0,0,1,8.836602210998535,0)" style="transform:matrix(1, 0, 0, 1, 8.8366, 0);animation-play-state:running" ></path>
<path d="M1339.9309970404229 557.5 L1368.8619940808458 557.5 A15.5 15.5 0 0 1 1368.8619940808458 589.5 L1339.9309970404229 589.5 A15.5 15.5 0 0 1 1339.9309970404229 557.5" fill="#000" transform="matrix(1,0,0,1,-1323.0184326171875,0)" opacity="0.225564" style="transform:matrix(1, 0, 0, 1, -1323.02, 0);opacity:0.225564;animation-play-state:running" ></path></g></mask></defs>


<rect x="0" y="0" width="1280" height="573" fill="url(#ldbk-photon-5r03y5gq30g-lg)" mask="url(#ldbk-photon-5r03y5gq30g-mask)" style="animation-play-state:running" ></rect></g></svg>